<svg width="24" height="24" viewBox="0 0 24 24" fill="none" xmlns="http://www.w3.org/2000/svg">
<path d="M21.41 8.64013C21.41 8.64013 21.41 8.64013 21.41 8.59013C20.7053 6.66635 19.4269 5.00541 17.7474 3.83199C16.068 2.65857 14.0687 2.0293 12.02 2.0293C9.9712 2.0293 7.97189 2.65857 6.29246 3.83199C4.61304 5.00541 3.33455 6.66635 2.62995 8.59013C2.62995 8.59013 2.62995 8.59013 2.62995 8.64013C1.84308 10.811 1.84308 13.1892 2.62995 15.3601C2.62995 15.3601 2.62995 15.3601 2.62995 15.4101C3.33455 17.3339 4.61304 18.9948 6.29246 20.1683C7.97189 21.3417 9.9712 21.971 12.02 21.971C14.0687 21.971 16.068 21.3417 17.7474 20.1683C19.4269 18.9948 20.7053 17.3339 21.41 15.4101C21.41 15.4101 21.41 15.4101 21.41 15.3601C22.1968 13.1892 22.1968 10.811 21.41 8.64013V8.64013ZM4.25995 14.0001C3.91318 12.6893 3.91318 11.3109 4.25995 10.0001H6.11995C5.95998 11.3287 5.95998 12.6716 6.11995 14.0001H4.25995ZM5.07995 16.0001H6.47995C6.71467 16.892 7.05016 17.7542 7.47995 18.5701C6.49925 17.9021 5.67945 17.0242 5.07995 16.0001ZM6.47995 8.00013H5.07995C5.67082 6.97921 6.48014 6.10159 7.44995 5.43013C7.03051 6.24737 6.70509 7.10954 6.47995 8.00013V8.00013ZM11 19.7001C9.77172 18.7988 8.9091 17.4854 8.56995 16.0001H11V19.7001ZM11 14.0001H8.13995C7.95334 12.6733 7.95334 11.3269 8.13995 10.0001H11V14.0001ZM11 8.00013H8.56995C8.9091 6.51489 9.77172 5.20144 11 4.30013V8.00013ZM18.92 8.00013H17.52C17.2852 7.10828 16.9497 6.24606 16.52 5.43013C17.5007 6.0982 18.3205 6.97607 18.92 8.00013ZM13 4.30013C14.2282 5.20144 15.0908 6.51489 15.43 8.00013H13V4.30013ZM13 19.7001V16.0001H15.43C15.0908 17.4854 14.2282 18.7988 13 19.7001V19.7001ZM15.86 14.0001H13V10.0001H15.86C16.0466 11.3269 16.0466 12.6733 15.86 14.0001ZM16.55 18.5701C16.9797 17.7542 17.3152 16.892 17.55 16.0001H18.95C18.3505 17.0242 17.5307 17.9021 16.55 18.5701ZM19.74 14.0001H17.88C17.9613 13.3366 18.0014 12.6686 18 12.0001C18.0011 11.3316 17.961 10.6637 17.88 10.0001H19.74C20.0867 11.3109 20.0867 12.6893 19.74 14.0001Z" fill="#09001e"/>
</svg>
